<?xml version="1.0" encoding="UTF-8" standalone="no"?>
<svg width="512" height="512" viewBox="0 0 512 512" fill="none" xmlns="http://www.w3.org/2000/svg">
  <!-- Background Circle -->
  <circle cx="256" cy="256" r="256" fill="#5E35B1"/>
  
  <!-- Split Coin Design -->
  <circle cx="256" cy="256" r="200" fill="#7E57C2"/>
  
  <!-- Left Half of Coin -->
  <path d="M256 56 A200 200 0 0 0 256 456 L256 256 Z" fill="#4527A0"/>
  
  <!-- Dollar Sign -->
  <path d="M290 170C290 153.431 276.569 140 260 140H230C213.431 140 200 153.431 200 170V170C200 186.569 213.431 200 230 200H260C276.569 200 290 213.431 290 230V290C290 306.569 276.569 320 260 320H230C213.431 320 200 306.569 200 290V290" stroke="white" stroke-width="24" stroke-linecap="round"/>
  
  <!-- Vertical Line of Dollar Sign -->
  <line x1="245" y1="120" x2="245" y2="340" stroke="white" stroke-width="24" stroke-linecap="round"/>
  
  <!-- Split Line -->
  <path d="M256 120 L256 390" stroke="#FFFFFF" stroke-width="8" stroke-dasharray="16 8" stroke-linecap="round"/>
  
  <!-- Small Circles representing people -->
  <circle cx="180" cy="380" r="20" fill="#FFFFFF"/>
  <circle cx="256" cy="380" r="20" fill="#FFFFFF"/>
  <circle cx="332" cy="380" r="20" fill="#FFFFFF"/>
</svg>
